<svg id="Layer_1" enable-background="new 0 0 511.88 511.88" height="512" viewBox="0 0 511.88 511.88" width="512" xmlns="http://www.w3.org/2000/svg"><g><path d="m194.51 194.223 71.757 71.758c15.189 15.189 35.385 23.554 56.866 23.554 15.109 0 29.573-4.155 42.116-11.896l-149.756-149.756-78.911 78.911 22.679 22.679z"/><path d="m407.062 425.55c-12.76 5.397-25.892 9.531-39.306 12.418l62.491 62.491 78.91-78.911-37.728-37.728c-18.927 17.624-40.539 31.651-64.367 41.73z"/><path d="m240.964 59.986-88.208-48.804-152.756 152.756 68.506 68.506z"/><path d="m108.967 322.192-.133-.134-103.877 103.877 74.762 74.763 104.972-104.973z"/><path d="m380.323 40.78-10.158 10.158s23.434 34.042 41.535 77.331c21.773 52.069 32.633 115.804-10.489 158.925-21.561 21.561-49.819 32.341-78.078 32.341s-56.518-10.781-78.079-32.341l-50.544-50.544-64.329 64.329 56.062 56.061c34.52 34.519 82.208 55.87 134.883 55.87 105.351 0 190.755-85.404 190.755-190.755-.001-84.684-55.19-156.466-131.558-181.375z"/></g></svg>